<?xml version="1.0" standalone="no"?>
<!DOCTYPE svg PUBLIC "-//W3C//DTD SVG 20010904//EN"
 "http://www.w3.org/TR/2001/REC-SVG-20010904/DTD/svg10.dtd">
<svg version="1.0" xmlns="http://www.w3.org/2000/svg"
 width="250.000000pt" height="250.000000pt" viewBox="0 0 250.000000 250.000000"
 preserveAspectRatio="xMidYMid meet">
<metadata>
Created by potrace 1.14, written by Peter Selinger 2001-2017
</metadata>
<g transform="translate(0.000000,250.000000) scale(0.100000,-0.100000)"
fill="#000000" stroke="none">
<path d="M1030 2109 c-58 -33 -109 -64 -115 -69 -6 -5 -10 -160 -9 -429 l0
-421 44 -45 c24 -25 47 -45 51 -45 4 0 37 30 73 67 l66 66 0 439 0 438 58 -32
c95 -53 87 -17 86 -376 0 -329 2 -347 37 -284 13 23 15 78 15 335 l-1 308 -94
54 c-51 30 -96 55 -100 55 -3 0 -53 -28 -111 -61z"/>
<path d="M1513 1854 l-113 -66 0 -144 c0 -130 7 -171 24 -129 10 27 32 16 98
-52 36 -38 76 -78 89 -90 l24 -22 -1 254 0 254 70 -39 71 -39 1 -286 1 -286
26 -26 26 -27 -2 328 -2 328 -93 54 c-52 30 -97 54 -100 53 -4 0 -58 -29 -119
-65z"/>
<path d="M539 1652 c-63 -35 -116 -66 -118 -68 -5 -4 -4 -624 1 -629 2 -3 55
47 117 109 l112 113 0 236 c0 131 2 237 4 237 10 0 135 -72 136 -78 1 -4 2
-67 3 -139 1 -128 2 -134 27 -158 l25 -26 0 175 c-1 103 -5 179 -11 185 -5 5
-49 32 -96 59 l-86 50 -114 -66z"/>
<path d="M2106 1355 l-218 -103 28 -16 c16 -8 45 -24 64 -35 19 -12 45 -26 58
-33 12 -6 22 -16 22 -21 0 -18 -149 -194 -218 -258 -186 -172 -394 -290 -610
-346 -173 -44 -426 -39 -545 11 -21 8 -37 13 -37 10 0 -16 -172 90 -225 139
-145 132 -218 313 -217 542 0 112 -8 101 -31 -40 -68 -411 177 -748 618 -850
70 -16 118 -20 265 -19 144 0 179 4 273 27 250 62 463 184 650 372 80 79 178
204 220 277 12 21 25 38 28 38 3 0 26 -16 50 -34 24 -19 46 -33 48 -30 7 7 9
464 2 469 -4 2 -105 -43 -225 -100z"/>
<path d="M1221 1229 l-223 -222 -109 109 -109 109 -192 -192 c-191 -191 -192
-192 -173 -213 10 -11 23 -19 27 -18 5 2 83 77 174 168 l164 164 87 -86 86
-86 -87 -88 c-47 -49 -86 -91 -86 -95 0 -3 9 -14 20 -24 21 -19 24 -16 333
293 l312 311 184 -185 c101 -101 187 -184 191 -184 4 0 15 9 25 20 19 21 17
23 -191 231 l-210 210 -223 -222z"/>
<path d="M1359 1038 c-1 -7 -2 -20 -3 -28 -2 -24 11 -36 41 -35 25 2 28 6 31
38 3 36 3 37 -32 37 -22 0 -36 -5 -37 -12z"/>
<path d="M1450 1012 c0 -35 2 -37 33 -37 35 0 46 15 39 52 -3 19 -11 23 -38
23 -33 0 -34 -2 -34 -38z"/>
<path d="M1369 961 c-8 -3 -13 -13 -13 -21 1 -8 2 -23 3 -32 1 -14 10 -18 36
-18 33 0 35 2 35 34 0 27 -4 35 -23 38 -13 3 -30 2 -38 -1z"/>
<path d="M1450 925 c0 -33 2 -35 34 -35 27 0 35 4 38 23 7 36 -1 47 -38 47
-32 0 -34 -2 -34 -35z"/>
</g>
</svg>
