<svg version="1.1" id="Layer_1" xmlns="http://www.w3.org/2000/svg" xmlns:xlink="http://www.w3.org/1999/xlink" x="0px" y="0px"
	 width="100%" viewBox="0 0 250 250" enable-background="new 0 0 250 250" xml:space="preserve">
<path fill="#FFFFFF" opacity="1.000000" stroke="none" 
	d="
M169.000000,251.000000 
	C112.666672,251.000000 56.833340,251.000000 1.000008,251.000000 
	C1.000005,167.666672 1.000005,84.333351 1.000003,1.000019 
	C84.333321,1.000012 167.666641,1.000012 250.999969,1.000006 
	C250.999969,84.333313 250.999969,167.666626 250.999985,250.999969 
	C223.833328,251.000000 196.666672,251.000000 169.000000,251.000000 
M83.108727,198.597290 
	C69.540146,196.337936 56.874393,191.674606 46.342846,182.713089 
	C28.140505,167.224304 21.407860,146.759369 22.041677,123.428345 
	C22.085213,121.825806 22.795536,120.251091 22.959652,118.639404 
	C23.125116,117.014473 22.996094,115.359566 22.996094,113.717789 
	C17.518124,127.360802 15.535912,141.204437 17.930523,155.642380 
	C21.154018,175.077911 30.516476,190.455322 46.926697,201.472458 
	C67.259293,215.122910 89.537064,220.210724 113.952377,218.207703 
	C126.813309,217.152603 139.045517,214.534805 151.058884,210.082916 
	C167.057556,204.154160 181.219849,195.302383 193.690826,183.759186 
	C205.410309,172.911621 215.974258,161.060104 223.825089,146.604553 
	C227.504776,149.281494 230.844559,151.711151 234.641632,154.473480 
	C234.641632,137.188782 234.641632,120.712357 234.641632,103.914848 
	C219.216812,111.200752 204.209778,118.289314 188.618652,125.653770 
	C194.931366,129.330811 200.892426,132.803040 206.781357,136.233261 
	C195.072403,152.299057 181.734619,166.223846 165.386368,177.161118 
	C151.163406,186.676514 135.972214,193.639404 119.119026,197.171997 
	C107.414871,199.625275 95.739014,199.782745 83.108727,198.597290 
M134.999573,87.499809 
	C134.999542,74.337738 135.095856,61.174080 134.878662,48.015594 
	C134.851242,46.354126 133.580002,44.134228 132.192520,43.179680 
	C127.503769,39.953938 122.580109,37.038330 117.564415,34.342472 
	C116.397980,33.715530 114.262032,33.945850 113.000099,34.603207 
	C106.780746,37.842941 100.578300,41.158241 94.658768,44.903477 
	C92.946716,45.986675 91.170479,48.575409 91.153862,50.488956 
	C90.925285,76.811157 90.983192,103.136040 91.045807,129.460083 
	C91.049095,130.838928 91.344589,132.518417 92.156693,133.538177 
	C94.715492,136.751328 97.585495,139.716644 100.702507,143.186996 
	C105.502876,138.239609 109.616150,134.345825 113.271263,130.061188 
	C114.708778,128.376099 115.872276,125.822701 115.887566,123.655731 
	C116.066261,98.332451 116.002083,73.007462 116.002106,47.682926 
	C116.002113,45.901104 116.002113,44.119278 116.002113,41.406422 
	C119.492332,43.390480 122.135185,45.296211 125.072617,46.455612 
	C128.383163,47.762272 129.139374,49.818180 129.078506,53.166080 
	C128.872589,64.491730 129.000000,75.823448 129.000000,87.152847 
	C129.000000,95.896294 129.000000,104.639740 129.000000,113.945137 
	C133.279465,110.954880 135.664810,108.033974 135.111832,102.982338 
	C134.589188,98.207893 134.999573,93.331322 134.999573,87.499809 
M85.999466,110.494797 
	C85.999466,107.332787 85.587448,104.104889 86.080421,101.021706 
	C87.321228,93.261299 84.928032,87.835518 77.384422,84.783669 
	C74.251526,83.516220 71.493675,81.342903 68.401382,79.943764 
	C67.112846,79.360756 65.088203,79.138603 63.926697,79.752365 
	C57.742313,83.020332 51.698063,86.558685 45.663853,90.103119 
	C43.224483,91.535988 41.821125,93.271721 41.870876,96.687149 
	C42.142353,115.322441 41.994617,133.963760 42.010685,152.602997 
	C42.011894,154.005188 42.166290,155.407242 42.312229,157.866989 
	C44.206734,156.132050 45.399918,155.115738 46.506863,154.012878 
	C52.401062,148.140488 58.422825,142.383942 64.057838,136.271454 
	C65.635330,134.560318 66.829903,131.792648 66.872375,129.485199 
	C67.128914,115.547668 67.000000,101.603043 67.000000,86.761894 
	C70.196243,88.657104 72.668770,90.639038 75.488968,91.668816 
	C79.272789,93.050453 80.286209,95.320839 80.086884,99.145935 
	C79.766869,105.286865 80.257584,111.471008 79.914597,117.609451 
	C79.669327,121.999054 82.054710,124.045464 85.999466,126.523895 
	C85.999466,120.978027 85.999466,116.234947 85.999466,110.494797 
M68.500740,138.000580 
	C58.881306,147.603851 49.261871,157.207123 39.857693,166.595505 
	C41.746567,168.824524 43.217274,170.560059 45.081917,172.760483 
	C56.614796,161.178558 67.725014,150.021103 78.214806,139.486710 
	C83.842232,145.005508 89.236740,150.295898 95.623672,156.559540 
	C89.990318,162.030594 84.083191,167.767517 78.792297,172.905975 
	C80.051086,174.710129 81.365570,176.594116 82.948463,178.862793 
	C104.249832,157.559723 124.915871,136.892029 146.225967,115.580215 
	C158.624680,128.044739 170.921753,140.407089 182.753098,152.301254 
	C184.525681,150.961411 186.441360,149.513397 188.235596,148.157196 
	C173.667053,133.567032 159.551956,119.430992 144.547485,104.404259 
	C129.886459,119.088142 115.126640,133.870987 99.513336,149.508636 
	C92.651695,142.596725 85.546104,135.439102 78.240410,128.079895 
	C75.289719,131.088394 72.145279,134.294449 68.500740,138.000580 
M172.415527,70.083862 
	C176.522186,71.878326 178.271027,74.585747 178.146042,79.477020 
	C177.750610,94.949493 178.222351,110.443474 177.871140,125.918083 
	C177.758621,130.875244 180.206848,133.212357 183.999710,135.780823 
	C183.999710,114.244461 184.033020,93.269814 183.925537,72.295883 
	C183.918289,70.881882 183.252655,68.821335 182.205017,68.172195 
	C176.949432,64.915710 171.487579,61.986454 166.036804,59.056461 
	C165.173615,58.592472 163.721985,58.228592 163.008087,58.635460 
	C155.932556,62.667965 148.933594,66.837250 141.977921,71.074448 
	C141.132233,71.589607 140.124191,72.724640 140.111938,73.585495 
	C139.978378,82.972603 140.028320,92.362328 140.028320,102.886543 
	C142.508148,100.806099 144.043976,99.517609 146.383408,97.554939 
	C152.586990,103.801910 158.728333,109.986221 164.959686,116.261162 
	C164.959686,99.792976 164.959686,83.233772 164.959686,65.995117 
	C167.532791,67.507317 169.599426,68.721863 172.415527,70.083862 
M153.985825,146.799469 
	C153.387451,146.205566 152.801956,145.111984 152.188690,145.096191 
	C146.897720,144.959869 141.601730,145.017776 136.357132,145.017776 
	C136.357132,151.327850 136.357132,157.041794 136.357132,162.608719 
	C142.433182,162.608719 148.144058,162.608719 153.998596,162.608719 
	C153.998596,157.375381 153.998596,152.559433 153.985825,146.799469 
z"/>
<path fill="#0FBBB3" opacity="1.000000" stroke="none" 
	d="
M83.525742,198.766602 
	C95.739014,199.782745 107.414871,199.625275 119.119026,197.171997 
	C135.972214,193.639404 151.163406,186.676514 165.386368,177.161118 
	C181.734619,166.223846 195.072403,152.299057 206.781357,136.233261 
	C200.892426,132.803040 194.931366,129.330811 188.618652,125.653770 
	C204.209778,118.289314 219.216812,111.200752 234.641632,103.914848 
	C234.641632,120.712357 234.641632,137.188782 234.641632,154.473480 
	C230.844559,151.711151 227.504776,149.281494 223.825089,146.604553 
	C215.974258,161.060104 205.410309,172.911621 193.690826,183.759186 
	C181.219849,195.302383 167.057556,204.154160 151.058884,210.082916 
	C139.045517,214.534805 126.813309,217.152603 113.952377,218.207703 
	C89.537064,220.210724 67.259293,215.122910 46.926697,201.472458 
	C30.516476,190.455322 21.154018,175.077911 17.930523,155.642380 
	C15.535912,141.204437 17.518124,127.360802 22.996094,113.717789 
	C22.996094,115.359566 23.125116,117.014473 22.959652,118.639404 
	C22.795536,120.251091 22.085213,121.825806 22.041677,123.428345 
	C21.407860,146.759369 28.140505,167.224304 46.342846,182.713089 
	C56.874393,191.674606 69.540146,196.337936 83.525742,198.766602 
z"/>
<path fill="#0FBBB3" opacity="1.000000" stroke="none" 
	d="
M134.999573,87.999741 
	C134.999573,93.331322 134.589188,98.207893 135.111832,102.982338 
	C135.664810,108.033974 133.279465,110.954880 129.000000,113.945137 
	C129.000000,104.639740 129.000000,95.896294 129.000000,87.152847 
	C129.000000,75.823448 128.872589,64.491730 129.078506,53.166080 
	C129.139374,49.818180 128.383163,47.762272 125.072617,46.455612 
	C122.135185,45.296211 119.492332,43.390480 116.002113,41.406422 
	C116.002113,44.119278 116.002113,45.901104 116.002106,47.682926 
	C116.002083,73.007462 116.066261,98.332451 115.887566,123.655731 
	C115.872276,125.822701 114.708778,128.376099 113.271263,130.061188 
	C109.616150,134.345825 105.502876,138.239609 100.702507,143.186996 
	C97.585495,139.716644 94.715492,136.751328 92.156693,133.538177 
	C91.344589,132.518417 91.049095,130.838928 91.045807,129.460083 
	C90.983192,103.136040 90.925285,76.811157 91.153862,50.488956 
	C91.170479,48.575409 92.946716,45.986675 94.658768,44.903477 
	C100.578300,41.158241 106.780746,37.842941 113.000099,34.603207 
	C114.262032,33.945850 116.397980,33.715530 117.564415,34.342472 
	C122.580109,37.038330 127.503769,39.953938 132.192520,43.179680 
	C133.580002,44.134228 134.851242,46.354126 134.878662,48.015594 
	C135.095856,61.174080 134.999542,74.337738 134.999573,87.999741 
z"/>
<path fill="#0FBBB3" opacity="1.000000" stroke="none" 
	d="
M85.999466,110.993332 
	C85.999466,116.234947 85.999466,120.978027 85.999466,126.523895 
	C82.054710,124.045464 79.669327,121.999054 79.914597,117.609451 
	C80.257584,111.471008 79.766869,105.286865 80.086884,99.145935 
	C80.286209,95.320839 79.272789,93.050453 75.488968,91.668816 
	C72.668770,90.639038 70.196243,88.657104 67.000000,86.761894 
	C67.000000,101.603043 67.128914,115.547668 66.872375,129.485199 
	C66.829903,131.792648 65.635330,134.560318 64.057838,136.271454 
	C58.422825,142.383942 52.401062,148.140488 46.506863,154.012878 
	C45.399918,155.115738 44.206734,156.132050 42.312229,157.866989 
	C42.166290,155.407242 42.011894,154.005188 42.010685,152.602997 
	C41.994617,133.963760 42.142353,115.322441 41.870876,96.687149 
	C41.821125,93.271721 43.224483,91.535988 45.663853,90.103119 
	C51.698063,86.558685 57.742313,83.020332 63.926697,79.752365 
	C65.088203,79.138603 67.112846,79.360756 68.401382,79.943764 
	C71.493675,81.342903 74.251526,83.516220 77.384422,84.783669 
	C84.928032,87.835518 87.321228,93.261299 86.080421,101.021706 
	C85.587448,104.104889 85.999466,107.332787 85.999466,110.993332 
z"/>
<path fill="#0FBBB3" opacity="1.000000" stroke="none" 
	d="
M68.750786,137.750549 
	C72.145279,134.294449 75.289719,131.088394 78.240410,128.079895 
	C85.546104,135.439102 92.651695,142.596725 99.513336,149.508636 
	C115.126640,133.870987 129.886459,119.088142 144.547485,104.404259 
	C159.551956,119.430992 173.667053,133.567032 188.235596,148.157196 
	C186.441360,149.513397 184.525681,150.961411 182.753098,152.301254 
	C170.921753,140.407089 158.624680,128.044739 146.225967,115.580215 
	C124.915871,136.892029 104.249832,157.559723 82.948463,178.862793 
	C81.365570,176.594116 80.051086,174.710129 78.792297,172.905975 
	C84.083191,167.767517 89.990318,162.030594 95.623672,156.559540 
	C89.236740,150.295898 83.842232,145.005508 78.214806,139.486710 
	C67.725014,150.021103 56.614796,161.178558 45.081917,172.760483 
	C43.217274,170.560059 41.746567,168.824524 39.857693,166.595505 
	C49.261871,157.207123 58.881306,147.603851 68.750786,137.750549 
z"/>
<path fill="#0FBBB3" opacity="1.000000" stroke="none" 
	d="
M172.040787,70.010132 
	C169.599426,68.721863 167.532791,67.507317 164.959686,65.995117 
	C164.959686,83.233772 164.959686,99.792976 164.959686,116.261162 
	C158.728333,109.986221 152.586990,103.801910 146.383408,97.554939 
	C144.043976,99.517609 142.508148,100.806099 140.028320,102.886543 
	C140.028320,92.362328 139.978378,82.972603 140.111938,73.585495 
	C140.124191,72.724640 141.132233,71.589607 141.977921,71.074448 
	C148.933594,66.837250 155.932556,62.667965 163.008087,58.635460 
	C163.721985,58.228592 165.173615,58.592472 166.036804,59.056461 
	C171.487579,61.986454 176.949432,64.915710 182.205017,68.172195 
	C183.252655,68.821335 183.918289,70.881882 183.925537,72.295883 
	C184.033020,93.269814 183.999710,114.244461 183.999710,135.780823 
	C180.206848,133.212357 177.758621,130.875244 177.871140,125.918083 
	C178.222351,110.443474 177.750610,94.949493 178.146042,79.477020 
	C178.271027,74.585747 176.522186,71.878326 172.040787,70.010132 
z"/>
<path fill="#0FBBB3" opacity="1.000000" stroke="none" 
	d="
M153.992218,147.271484 
	C153.998596,152.559433 153.998596,157.375381 153.998596,162.608719 
	C148.144058,162.608719 142.433182,162.608719 136.357132,162.608719 
	C136.357132,157.041794 136.357132,151.327850 136.357132,145.017776 
	C141.601730,145.017776 146.897720,144.959869 152.188690,145.096191 
	C152.801956,145.111984 153.387451,146.205566 153.992218,147.271484 
z"/>
</svg>